<svg viewBox="0 0 24 24" fill="none" xmlns="http://www.w3.org/2000/svg" width="256" height="256">
<mask id="mask0" mask-type="alpha" maskUnits="userSpaceOnUse" x="3" y="0" width="18" height="24">
<path d="M13 1C13 0.447715 13.4477 0 14 0H20C20.5523 0 21 0.447715 21 1V23C21 23.5523 20.5523 24 20 24H4C3.44772 24 3 23.5523 3 23V13C3 12.4477 3.44772 12 4 12H8.00002V7C8.00002 6.44772 8.44775 6 9.00002 6H13V1Z" fill="white"/>
</mask>
<g mask="url(#mask0)">
<path d="M21 0V24H13V0H21Z" fill="url(#paint0_linear)"/>
<g filter="url(#filter0_f)">
<path d="M16 7.10001V24.1H8V6.10001H15C15.5523 6.10001 16 6.54773 16 7.10001Z" fill="black" fill-opacity="0.2"/>
</g>
<g filter="url(#filter1_f)">
<path d="M16 7.5V24.5H8V6.5H15C15.5523 6.5 16 6.94772 16 7.5Z" fill="black" fill-opacity="0.18"/>
</g>
<path d="M16 7V24H8V6H15C15.5523 6 16 6.44772 16 7Z" fill="url(#paint1_linear)"/>
<path d="M2.99995 12V24H11V13C11 12.4477 10.5522 12 9.99995 12H2.99995Z" fill="url(#paint2_linear)"/>
</g>
<defs>
<filter id="filter0_f" x="7.2" y="5.30001" width="9.6" height="19.6" filterUnits="userSpaceOnUse" color-interpolation-filters="sRGB">
<feFlood flood-opacity="0" result="BackgroundImageFix"/>
<feBlend mode="normal" in="SourceGraphic" in2="BackgroundImageFix" result="shape"/>
<feGaussianBlur stdDeviation="0.4" result="effect1_foregroundBlur"/>
</filter>
<filter id="filter1_f" x="0" y="-1.5" width="24" height="34" filterUnits="userSpaceOnUse" color-interpolation-filters="sRGB">
<feFlood flood-opacity="0" result="BackgroundImageFix"/>
<feBlend mode="normal" in="SourceGraphic" in2="BackgroundImageFix" result="shape"/>
<feGaussianBlur stdDeviation="4" result="effect1_foregroundBlur"/>
</filter>
<linearGradient id="paint0_linear" x1="11.6666" y1="-3.20674e-07" x2="22.2163" y2="22.3616" gradientUnits="userSpaceOnUse">
<stop stop-color="#E6AD10"/>
<stop offset="1" stop-color="#C87E0E"/>
</linearGradient>
<linearGradient id="paint1_linear" x1="7.99935" y1="6" x2="16.8715" y2="23.2065" gradientUnits="userSpaceOnUse">
<stop stop-color="#F6D751"/>
<stop offset="1" stop-color="#E6AD10"/>
</linearGradient>
<linearGradient id="paint2_linear" x1="2.9993" y1="12" x2="7.902" y2="23.6194" gradientUnits="userSpaceOnUse">
<stop stop-color="#F9E589"/>
<stop offset="1" stop-color="#F6D751"/>
</linearGradient>
</defs>
</svg>
